<?xml version="1.0" encoding="UTF-8"?>
<svg 
	xmlns="http://www.w3.org/2000/svg"
	version="1.1"
	viewBox="0 0 800 600">
	<title>Pacer</title>
	<g id="Background">
		<path style="fill: #f6f8fa;" d="M800,300v101.75s0,8.6,0,8.6v6.54s0,5.33,0,5.33v4.54s0,3.97,0,3.97v3.54s0,3.2,0,3.2v2.93s0,2.7,0,2.7v2.51s-.01,2.35-.01,2.35v2.21s-.01,2.09-.01,2.09v1.98s-.01,1.88-.01,1.88v1.79s-.02,1.71-.02,1.71v1.65s-.02,1.58-.02,1.58v1.52s-.02,1.47-.02,1.47v1.42s-.02,1.37-.02,1.37v1.33s-.02,1.29-.02,1.29v1.25s-.02,1.21-.02,1.21v1.18s-.02,1.15-.02,1.15v1.12s-.03,1.09-.03,1.09v1.07s-.03,1.04-.03,1.04v1.02s-.03.99-.03.99l-.02.97-.02.95-.02.93-.02.91-.02.9-.02.88-.02.86-.02.85-.02.83-.02.82-.02.8-.02.79-.02.78-.02.76-.02.75-.02.74-.02.73-.02.72-.02.71-.02.7-.02.69-.02.68-.02.67-.02.66-.03.65-.03.64-.03.64-.03.63-.03.62-.03.61-.03.6-.03.6-.03.59-.03.58-.03.58-.03.57-.03.56-.03.56-.03.55-.03.55-.03.54-.03.53-.03.53-.03.52-.03.52-.03.51-.03.51-.03.5-.03.5-.04.49-.04.49-.04.48-.04.48-.04.47-.04.47-.04.47-.04.46-.04.46-.04.45-.04.45-.04.45-.04.44-.04.44-.04.43-.04.43-.04.43-.04.42-.04.42-.04.42-.04.41-.04.41-.04.41-.05.4-.04.4-.05.4-.05.39-.05.39-.05.39-.05.39-.05.38-.05.38-.05.38-.05.38-.05.37-.05.37-.05.37-.05.37-.05.36-.05.36-.05.36-.05.35-.05.35-.05.35-.05.35-.05.35-.05.34-.05.34-.05.34-.06.34-.06.33-.06.33-.06.33-.06.33-.06.33-.06.33-.06.32-.06.32-.06.32-.06.32-.06.32-.06.31-.06.31-.06.31-.06.31-.06.31-.06.3-.06.3-.06.3-.06.3-.07.3-.07.29-.07.29-.07.29-.07.29-.07.29-.07.29-.07.29-.07.28-.07.28-.07.28-.07.28-.07.28-.07.28-.07.28-.07.27-.07.27-.07.27-.07.27-.07.27-.07.27-.07.26-.07.26-.08.26-.08.26-.08.26-.08.26-.08.26-.08.26-.08.25-.08.25-.08.25-.08.25-.08.25-.08.25-.08.25-.08.24-.08.24-.08.24-.08.24-.08.24-.08.24-.08.24-.08.24-.09.24-.09.23-.09.23-.09.23-.09.23-.09.23-.09.23-.09.23-.09.23-.09.23-.09.22-.09.22-.09.22-.09.22-.09.22-.09.22-.09.22-.09.22-.09.22-.09.22-.09.22-.1.21-.09.21-.1.21-.1.21-.1.21-.1.21-.1.21-.1.21-.1.21-.1.21-.1.2-.1.2-.1.2-.1.2-.1.2-.1.2-.1.2-.1.2-.1.2-.1.2-.1.2-.11.19-.11.19-.11.19-.11.19-.11.19-.11.19-.11.19-.11.19-.11.19-.11.19-.11.19-.11.19-.11.18-.11.18-.11.18-.11.18-.11.18-.11.18-.11.18-.11.18-.12.18-.12.18-.12.18-.12.18-.12.18-.12.18-.12.17-.12.17-.12.17-.12.17-.12.17-.12.17-.12.17-.12.17-.12.17-.12.17-.12.17-.12.17-.12.17-.13.17-.13.17-.13.16-.13.16-.13.16-.13.16-.13.16-.13.16-.13.16-.13.16-.13.16-.13.16-.13.16-.13.16-.13.16-.13.16-.13.15-.14.16-.14.15-.14.15-.14.15-.14.15-.14.15-.14.15-.14.15-.14.15-.14.15-.14.15-.14.15-.14.15-.14.15-.14.15-.14.15-.15.14-.15.15-.15.14-.15.14-.15.14-.15.14-.15.14-.15.14-.15.14-.15.14-.15.14-.15.14-.15.14-.15.14-.15.14-.15.14-.16.14-.16.14-.16.13-.16.14-.16.13-.16.13-.16.13-.16.13-.16.13-.16.13-.16.13-.16.13-.16.13-.16.13-.16.13-.16.13-.16.13-.17.13-.17.13-.17.13-.17.12-.17.12-.17.12-.17.12-.17.12-.17.12-.17.12-.17.12-.17.12-.17.12-.18.12-.17.12-.18.12-.18.12-.18.12-.18.12-.18.12-.18.12-.18.12-.18.12-.18.12-.18.11-.18.11-.18.11-.18.11-.19.11-.19.11-.19.11-.19.11-.19.11-.19.11-.19.11-.19.11-.19.11-.19.11-.19.11-.19.11-.2.11-.2.11-.2.11-.2.11-.2.11-.2.11-.2.1-.2.1-.2.1-.2.1-.2.1-.2.1-.2.1-.21.1-.21.1-.21.1-.21.1-.21.1-.21.1-.21.1-.21.1-.21.1-.21.1-.21.1-.21.1-.22.1-.22.1-.22.1-.22.1-.22.09-.22.1-.22.09-.22.09-.22.09-.22.09-.22.09-.23.09-.23.09-.23.09-.23.09-.23.09-.23.09-.23.09-.23.09-.23.09-.23.09-.23.09-.24.09-.24.09-.24.09-.24.09-.24.09-.24.09-.24.09-.24.08-.24.09-.24.09-.25.08-.25.08-.25.08-.25.08-.25.08-.25.08-.25.08-.25.08-.26.08-.25.08-.26.08-.26.08-.26.08-.26.08-.26.08-.26.08-.26.08-.26.08-.27.08-.27.08-.27.08-.27.08-.27.08-.27.08-.27.08-.27.07-.27.07-.28.07-.28.07-.28.07-.28.07-.28.07-.28.07-.28.07-.28.07-.29.07-.29.07-.29.07-.29.07-.29.07-.29.07-.29.07-.3.07-.3.07-.3.07-.3.07-.3.07-.3.07-.3.07-.31.07-.31.07-.31.07-.31.07-.31.06-.31.06-.32.06-.32.06-.32.06-.32.06-.32.06-.32.06-.32.06-.33.06-.33.06-.33.06-.33.06-.33.06-.33.06-.34.06-.34.06-.34.06-.34.06-.34.06-.34.06-.35.06-.35.06-.35.06-.35.06-.35.06-.35.05-.36.05-.36.05-.36.05-.36.05-.36.05-.37.05-.37.05-.37.05-.37.05-.38.05-.38.05-.38.05-.38.05-.38.05-.38.05-.39.05-.39.05-.39.05-.39.05-.4.05-.4.05-.4.05-.4.05-.41.05-.41.05-.41.05-.41.05-.41.05-.42.05-.42.04-.42.05-.42.04-.43.04-.43.04-.43.04-.43.04-.44.04-.44.04-.44.04-.45.04-.45.04-.45.04-.45.04-.46.04-.46.04-.46.04-.47.04-.47.04-.47.04-.48.04-.48.04-.48.04-.49.04-.49.04-.49.04-.5.04-.5.04-.5.04-.51.04-.51.04-.52.04-.52.04-.52.03-.53.03-.53.03-.54.03-.54.03-.54.03-.55.03-.55.03-.56.03-.56.03-.57.03-.57.03-.58.03-.58.03-.58.03-.59.03-.6.03-.6.03-.61.03-.61.03-.62.03-.62.03-.63.03-.63.03-.64.03-.64.03-.65.03-.66.03-.66.03-.67.03-.68.03-.68.02-.69.03-.7.03-.7.02-.71.02-.72.02-.73.02-.73.02-.74.02-.75.02-.76.02-.77.02-.78.02-.79.02-.8.02-.8.02-.82.02-.83.02-.84.02-.85.02-.86.02-.87.02-.88.02-.89.02-.9.02-.92.02-.93.02-.95.02-.96.02-.97.02-.99.02-1,.02-1.02.02-1.04.02h-1.05s-1.07.03-1.07.03h-1.09s-1.11.03-1.11.03h-1.13s-1.15.03-1.15.03h-1.17s-1.2.03-1.2.03h-1.22s-1.24.02-1.24.02h-1.27s-1.3.02-1.3.02h-1.33s-1.36.02-1.36.02h-1.39s-1.42.02-1.42.02h-1.46s-1.49.02-1.49.02h-1.53s-1.57.02-1.57.02h-1.62s-1.66.02-1.66.02h-1.71s-1.77.02-1.77.02h-1.83s-1.89.01-1.89.01h-1.96s-2.03.01-2.03.01h-2.11s-2.19.01-2.19.01h-2.29s-2.39.01-2.39.01h-2.51s-2.64.01-2.64.01h-2.78s-2.94,0-2.94,0h-3.13s-3.35,0-3.35,0h-3.6s-3.9,0-3.9,0h-4.27s-4.72,0-4.72,0h-5.29s-6.05,0-6.05,0h-7.11s-8.71,0-8.71,0h-29.02s-117.38,0-117.38,0h-136.39s-11.46,0-11.46,0h-8.71s-7.11,0-7.11,0h-6.05s-5.29,0-5.29,0h-4.72s-4.27,0-4.27,0h-3.9s-3.6,0-3.6,0h-3.35s-3.13,0-3.13,0h-2.94s-2.78,0-2.78,0h-2.64s-2.51-.01-2.51-.01h-2.39s-2.29-.01-2.29-.01h-2.19s-2.11-.01-2.11-.01h-2.03s-1.96-.01-1.96-.01h-1.89s-1.83-.01-1.83-.01h-1.77s-1.71-.02-1.71-.02h-1.67s-1.62-.02-1.62-.02h-1.57s-1.53-.02-1.53-.02h-1.49s-1.46-.02-1.46-.02h-1.42s-1.39-.02-1.39-.02h-1.36s-1.32-.02-1.32-.02h-1.3s-1.27-.02-1.27-.02h-1.24s-1.22-.02-1.22-.02h-1.19s-1.17-.03-1.17-.03h-1.15s-1.13-.03-1.13-.03h-1.11s-1.09-.03-1.09-.03l-1.07-.02h-1.05s-1.04-.03-1.04-.03l-1.02-.02-1-.02-.99-.02-.97-.02-.96-.02-.95-.02-.93-.02-.92-.02-.9-.02-.89-.02-.88-.02-.87-.02-.86-.02-.85-.02-.84-.02-.83-.02-.82-.02-.81-.02-.8-.02-.79-.02-.78-.02-.77-.02-.76-.02-.75-.02-.74-.02-.74-.02-.73-.02-.72-.02-.71-.02-.7-.02-.7-.03-.69-.03-.68-.02-.68-.03-.67-.03-.66-.03-.66-.03-.65-.03-.64-.03-.64-.03-.63-.03-.63-.03-.62-.03-.62-.03-.61-.03-.6-.03-.6-.03-.59-.03-.59-.03-.58-.03-.58-.03-.57-.03-.57-.03-.57-.03-.56-.03-.56-.03-.55-.03-.55-.03-.54-.03-.54-.03-.54-.03-.53-.03-.53-.03-.52-.03-.52-.04-.52-.04-.51-.04-.51-.04-.5-.04-.5-.04-.5-.04-.49-.04-.49-.04-.49-.04-.48-.04-.48-.04-.48-.04-.47-.04-.47-.04-.47-.04-.46-.04-.46-.04-.46-.04-.46-.04-.45-.04-.45-.04-.45-.04-.44-.04-.44-.04-.44-.04-.44-.04-.43-.04-.43-.04-.43-.04-.42-.04-.42-.05-.42-.04-.42-.05-.42-.05-.41-.05-.41-.05-.41-.05-.4-.05-.4-.05-.4-.05-.4-.05-.4-.05-.39-.05-.39-.05-.39-.05-.39-.05-.38-.05-.38-.05-.38-.05-.38-.05-.38-.05-.38-.05-.37-.05-.37-.05-.37-.05-.37-.05-.36-.05-.36-.05-.36-.05-.36-.05-.36-.05-.35-.05-.35-.06-.35-.06-.35-.06-.35-.06-.35-.06-.34-.06-.34-.06-.34-.06-.34-.06-.34-.06-.33-.06-.33-.06-.33-.06-.33-.06-.33-.06-.33-.06-.33-.06-.32-.06-.32-.06-.32-.06-.32-.06-.32-.06-.32-.06-.32-.06-.31-.06-.31-.06-.31-.07-.31-.07-.31-.07-.31-.07-.3-.07-.3-.07-.3-.07-.3-.07-.3-.07-.3-.07-.3-.07-.29-.07-.29-.07-.29-.07-.29-.07-.29-.07-.29-.07-.29-.07-.28-.07-.28-.07-.28-.07-.28-.07-.28-.07-.28-.07-.28-.07-.28-.07-.28-.07-.27-.07-.27-.08-.27-.08-.27-.08-.27-.08-.27-.08-.27-.08-.27-.08-.26-.08-.26-.08-.26-.08-.26-.08-.26-.08-.26-.08-.26-.08-.26-.08-.26-.08-.26-.08-.25-.08-.25-.08-.25-.08-.25-.08-.25-.08-.25-.08-.25-.08-.25-.08-.24-.09-.24-.09-.24-.08-.24-.09-.24-.09-.24-.09-.24-.09-.24-.09-.24-.09-.24-.09-.24-.09-.23-.09-.23-.09-.23-.09-.23-.09-.23-.09-.23-.09-.23-.09-.23-.09-.23-.09-.23-.09-.22-.09-.22-.09-.22-.09-.22-.09-.22-.09-.22-.1-.22-.09-.22-.1-.22-.1-.22-.1-.22-.1-.22-.1-.21-.1-.21-.1-.21-.1-.21-.1-.21-.1-.21-.1-.21-.1-.21-.1-.21-.1-.21-.1-.21-.1-.2-.1-.2-.1-.2-.1-.2-.1-.2-.1-.2-.1-.2-.1-.2-.11-.2-.11-.2-.11-.2-.11-.2-.11-.19-.11-.19-.11-.19-.11-.19-.11-.19-.11-.19-.11-.19-.11-.19-.11-.19-.11-.19-.11-.19-.11-.19-.11-.19-.11-.18-.11-.18-.11-.18-.11-.18-.11-.18-.12-.18-.12-.18-.12-.18-.12-.18-.12-.18-.12-.18-.12-.18-.12-.18-.12-.18-.12-.17-.12-.17-.12-.17-.12-.17-.12-.17-.12-.17-.12-.17-.12-.17-.12-.17-.12-.17-.12-.17-.12-.17-.13-.17-.13-.17-.13-.17-.13-.16-.13-.16-.13-.16-.13-.16-.13-.16-.13-.16-.13-.16-.13-.16-.13-.16-.13-.16-.13-.16-.13-.16-.13-.16-.14-.16-.13-.15-.14-.16-.14-.15-.14-.15-.14-.15-.14-.15-.14-.15-.14-.15-.14-.15-.14-.15-.14-.15-.14-.15-.14-.15-.14-.15-.14-.15-.14-.15-.14-.15-.15-.15-.14-.14-.15-.14-.15-.14-.15-.14-.15-.14-.15-.14-.15-.14-.15-.14-.15-.14-.15-.14-.15-.14-.15-.14-.15-.14-.15-.14-.15-.14-.15-.14-.16-.14-.15-.13-.16-.13-.16-.13-.16-.13-.16-.13-.16-.13-.16-.13-.16-.13-.16-.13-.16-.13-.16-.13-.16-.13-.16-.13-.16-.13-.16-.13-.17-.13-.17-.12-.17-.12-.17-.12-.17-.12-.17-.12-.17-.12-.17-.12-.17-.12-.17-.12-.17-.12-.17-.12-.17-.12-.17-.12-.17-.12-.18-.12-.18-.12-.18-.12-.18-.12-.18-.12-.18-.11-.18-.11-.18-.11-.18-.11-.18-.11-.18-.11-.18-.11-.18-.11-.18-.11-.19-.11-.19-.11-.19-.11-.19-.11-.19-.11-.19-.11-.19-.11-.19-.11-.19-.11-.19-.11-.19-.11-.19-.1-.2-.1-.2-.1-.2-.1-.2-.1-.2-.1-.2-.1-.2-.1-.2-.1-.2-.1-.2-.1-.2-.1-.21-.1-.21-.1-.21-.1-.21-.1-.21-.1-.21-.1-.21-.1-.21-.1-.21-.1-.21-.1-.22-.09-.22-.09-.22-.09-.22-.09-.22-.09-.22-.09-.22-.09-.22-.09-.22-.09-.22-.09-.22-.09-.23-.09-.23-.09-.23-.09-.23-.09-.23-.09-.23-.09-.23-.09-.23-.09-.23-.09-.24-.08-.24-.08-.24-.08-.24-.08-.24-.08-.24-.08-.24-.08-.24-.08-.24-.08-.25-.08-.25-.08-.25-.08-.25-.08-.25-.08-.25-.08-.25-.08-.26-.08-.26-.08-.26-.08-.26-.07-.26-.08-.26-.07-.26-.07-.26-.07-.27-.07-.27-.07-.27-.07-.27-.07-.27-.07-.27-.07-.28-.07-.28-.07-.28-.07-.28-.07-.28-.07-.28-.07-.28-.07-.29-.07-.29-.07-.29-.07-.29-.07-.29-.07-.29-.07-.29-.07-.3-.06-.3-.06-.3-.06-.3-.06-.3-.06-.31-.06-.31-.06-.31-.06-.31-.06-.31-.06-.32-.06-.32-.06-.32-.06-.32-.06-.32-.06-.33-.06-.33-.06-.33-.06-.33-.06-.33-.06-.33-.06-.34-.06-.34-.05-.34-.06-.34-.05-.35-.05-.35-.05-.35-.05-.35-.05-.35-.05-.36-.05-.36-.05-.36-.05-.37-.05-.37-.05-.37-.05-.37-.05-.38-.05-.38-.05-.38-.05-.38-.05-.39-.05-.39-.05-.39-.05-.39-.05-.4-.05-.4-.04-.4-.04-.41-.04-.41-.04-.41-.04-.42-.04-.42-.04-.42-.04-.43-.04-.43-.04-.43-.04-.44-.04-.44-.04-.45-.04-.45-.04-.45-.04-.46-.04-.46-.04-.47-.04-.47-.04-.47-.04-.48-.04-.48-.04-.49-.03-.49-.04-.5-.03-.5-.03-.51-.03-.51-.03-.52-.03-.52-.03-.53-.03-.53-.03-.54-.03-.55-.03-.55-.03-.56-.03-.56-.03-.57-.03-.58-.03-.58-.03-.59-.03-.6-.03-.6-.03-.61-.03-.62-.03-.63-.03-.64-.02-.64-.03-.65-.02-.66-.02-.67-.02-.68-.02-.69-.02-.7-.02-.71-.02-.72-.02-.73-.02-.74-.02-.75-.02-.76-.02-.78-.02-.79-.02-.8-.02-.82-.02-.83-.02-.85-.02-.86-.02-.88-.02-.9-.02-.91-.02-.93-.02-.95-.02-.97v-.99s-.03-1.02-.03-1.02v-1.04s-.03-1.07-.03-1.07v-1.09s-.02-1.12-.02-1.12v-1.15s-.03-1.18-.03-1.18v-1.21s-.02-1.25-.02-1.25v-1.29s-.02-1.33-.02-1.33v-1.37s-.02-1.42-.02-1.42v-1.47s-.02-1.52-.02-1.52v-1.58s-.02-1.65-.02-1.65v-1.71s-.02-1.79-.02-1.79v-1.88s-.01-1.98-.01-1.98v-2.09s-.01-2.21-.01-2.21v-2.35s-.01-2.51-.01-2.51v-2.7s0-2.93,0-2.93v-3.2s0-3.54,0-3.54v-3.97s0-4.54,0-4.54v-5.33s0-6.54,0-6.54v-8.6s0-13.17,0-13.17v-190.33s0-8.6,0-8.6v-6.54s0-5.33,0-5.33v-4.54s0-3.97,0-3.97v-3.54s0-3.2,0-3.2v-2.93s0-2.7,0-2.7v-2.51s.01-2.35.01-2.35v-2.21s.01-2.09.01-2.09v-1.98s.01-1.88.01-1.88v-1.79s.02-1.71.02-1.71v-1.65s.02-1.58.02-1.58v-1.52s.02-1.47.02-1.47v-1.42s.02-1.37.02-1.37v-1.33s.02-1.29.02-1.29v-1.25s.02-1.21.02-1.21v-1.18s.03-1.15.03-1.15v-1.12s.02-1.09.02-1.09v-1.06s.03-1.04.03-1.04v-1.02s.03-.99.03-.99l.02-.97.02-.95.02-.93.02-.92.02-.9.02-.88.02-.86.02-.85.02-.83.02-.82.02-.8.02-.79.02-.78.02-.76.02-.75.02-.74.02-.73.02-.72.02-.71.02-.7.02-.69.02-.68.02-.67.02-.66.03-.65.02-.64.03-.64.03-.63.03-.62.03-.61.03-.6.03-.6.03-.59.03-.58.03-.58.03-.57.03-.56.03-.56.03-.55.03-.55.03-.54.03-.53.03-.53.03-.52.03-.52.03-.51.03-.51.03-.5.04-.5.03-.49.04-.49.04-.48.04-.48.04-.48.04-.47.04-.47.04-.46.04-.46.04-.45.04-.45.04-.45.04-.44.04-.44.04-.43.04-.43.04-.43.04-.42.04-.42.04-.42.04-.41.04-.41.04-.41.04-.4.05-.4.05-.4.05-.39.05-.39.05-.39.05-.39.05-.38.05-.38.05-.38.05-.38.05-.37.05-.37.05-.37.05-.37.05-.36.05-.36.05-.36.05-.35.05-.35.05-.35.05-.35.05-.35.06-.34.05-.34.06-.34.06-.34.06-.33.06-.33.06-.33.06-.33.06-.33.06-.33.06-.32.06-.32.06-.32.06-.32.06-.31.06-.31.06-.31.06-.31.06-.31.06-.31.06-.3.06-.3.06-.3.06-.3.07-.3.07-.3.07-.29.07-.29.07-.29.07-.29.07-.29.07-.29.07-.28.07-.28.07-.28.07-.28.07-.28.07-.28.07-.27.07-.27.07-.27.07-.27.07-.27.07-.27.07-.27.07-.26.07-.26.08-.26.07-.26.08-.26.08-.26.08-.26.08-.26.08-.25.08-.25.08-.25.08-.25.08-.25.08-.25.08-.25.08-.24.08-.25.08-.24.08-.24.08-.24.08-.24.08-.24.08-.24.09-.24.09-.24.09-.23.09-.23.09-.23.09-.23.09-.23.09-.23.09-.23.09-.23.09-.22.09-.22.09-.22.09-.22.09-.22.09-.22.09-.22.09-.22.09-.22.09-.22.1-.22.1-.21.1-.21.1-.21.1-.21.1-.21.1-.21.1-.21.1-.21.1-.21.1-.21.1-.21.1-.2.1-.2.1-.2.1-.2.1-.2.1-.2.1-.2.1-.2.1-.2.1-.2.11-.2.11-.19.11-.19.11-.19.11-.19.11-.19.11-.19.11-.19.11-.19.11-.19.11-.19.11-.19.11-.18.11-.19.11-.18.11-.18.11-.18.11-.18.11-.18.11-.18.12-.18.12-.18.12-.18.12-.18.12-.18.12-.17.12-.17.12-.17.12-.17.12-.17.12-.17.12-.17.12-.17.12-.17.12-.17.12-.17.12-.17.12-.17.12-.17.13-.17.13-.17.13-.16.13-.16.13-.16.13-.16.13-.16.13-.16.13-.16.13-.16.13-.16.13-.16.13-.16.13-.16.13-.16.13-.16.14-.15.14-.16.14-.15.14-.15.14-.15.14-.15.14-.15.14-.15.14-.15.14-.15.14-.15.14-.15.14-.15.14-.15.14-.15.14-.15.14-.15.15-.14.15-.15.15-.14.15-.14.15-.14.15-.14.15-.14.15-.14.15-.14.15-.14.15-.14.15-.14.15-.14.15-.14.15-.14.15-.14.16-.14.15-.14.16-.13.16-.14.16-.13.16-.13.16-.13.16-.13.16-.13.16-.13.16-.13.16-.13.16-.13.16-.13.16-.13.16-.13.17-.13.17-.13.17-.13.17-.13.17-.12.17-.12.17-.12.17-.12.17-.12.17-.12.17-.12.17-.12.17-.12.17-.12.17-.12.18-.12.18-.12.18-.12.18-.12.18-.12.18-.12.18-.12.18-.12.18-.12.18-.12.18-.12.18-.11.18-.12.18-.11.19-.11.19-.11.19-.11.19-.11.19-.11.19-.11.19-.11.19-.11.19-.11.19-.11.19-.11.19-.11.19-.11.2-.11.2-.11.2-.11.2-.11.2-.11.2-.1.2-.11.2-.1.2-.1.2-.1.2-.1.2-.1.21-.1.21-.1.21-.1.21-.1.21-.1.21-.1.21-.1.21-.1.21-.1.21-.1.21-.1.22-.1.22-.1.22-.1.22-.1.22-.09.22-.1.22-.1.22-.1.22-.09.22-.09.22-.09.22-.09.23-.09.23-.09.23-.09.23-.09.23-.09.23-.09.23-.09.23-.09.23-.09.23-.09.24-.09.24-.09.24-.09.24-.09.24-.09.24-.09.24-.09.24-.09.24-.09.24-.09.24-.09.25-.08.25-.08.25-.08.25-.08.25-.08.25-.08.25-.08.25-.08.26-.08.26-.08.26-.08.26-.08.26-.08.26-.08.26-.08.26-.08.26-.08.26-.08.27-.08.27-.08.27-.08.27-.08.27-.08.27-.08.27-.07.27-.07.28-.07.28-.07.28-.07.28-.07.28-.07.28-.07.28-.07.28-.07.28-.07.29-.07.29-.07.29-.07.29-.07.29-.07.29-.07.29-.07.3-.07.3-.07.3-.07.3-.07.3-.07.3-.07.3-.07.31-.07.31-.07.31-.07.31-.07.31-.06.31-.06.32-.06.32-.06.32-.06.32-.06.32-.06.32-.06.32-.06.33-.06.33-.06.33-.06.33-.06.33-.06.33-.06.33-.06.34-.06.34-.06.34-.06.34-.06.34-.06.35-.06.35-.06.35-.06.35-.06.35-.06.35-.05.36-.06.36-.05.36-.05.36-.05.36-.05.37-.05.37-.05.37-.05.37-.05.38-.05.38-.05.38-.05.38-.05.38-.05.38-.05.39-.05.39-.05.39-.05.39-.05.4-.05.4-.05.4-.05.4-.05.4-.05.41-.05.41-.05.41-.05.42-.05.42-.05.42-.04.42-.05.42-.04.43-.04.43-.04.43-.04.44-.04.44-.04.44-.04.44-.04.45-.04.45-.04.45-.04.46-.04.46-.04.46-.04.46-.04.47-.04.47-.04.47-.04.48-.04.48-.04.48-.04.49-.04.49-.04.49-.04.5-.04.5-.04.5-.04.51-.04.51-.04.52-.04.52-.04.52-.03.53-.03.53-.03.54-.03.54-.03.54-.03.55-.03.55-.03.56-.03.56-.03.57-.03.57-.03.57-.03.58-.03.58-.03.59-.03.59-.03.6-.03.6-.03.61-.03.62-.03.62-.03.63-.03.63-.03.64-.03.64-.03.65-.03.66-.03.66-.03.67-.03.68-.03.68-.02.69-.02.7-.02.7-.02.71-.02.72-.02.73-.02.74-.02.74-.02.75-.02.76-.02.77-.02.78-.02.79-.02.8-.02.81-.02.82-.02.83-.02.84-.02.85-.02.86-.02.87-.02.88-.02.89-.02.9-.02.92-.02.93-.02.95-.02.96-.02.97-.02.99-.02,1-.02,1.02-.02h1.04s1.05-.03,1.05-.03l1.07-.02h1.09s1.11-.03,1.11-.03h1.13s1.15-.03,1.15-.03h1.17s1.19-.03,1.19-.03h1.22s1.24-.02,1.24-.02h1.27s1.3-.02,1.3-.02h1.32s1.36-.02,1.36-.02h1.39s1.42-.02,1.42-.02h1.46s1.49-.02,1.49-.02h1.53s1.57-.02,1.57-.02h1.62s1.67-.02,1.67-.02h1.71s1.77-.02,1.77-.02h1.83s1.89-.01,1.89-.01h1.96s2.03-.01,2.03-.01h2.11s2.19-.01,2.19-.01h2.29s2.39-.01,2.39-.01h2.51s2.64,0,2.64,0h2.78s2.94,0,2.94,0h3.13s3.35,0,3.35,0h3.6s3.9,0,3.9,0h4.27s4.72,0,4.72,0h5.29s6.05,0,6.05,0h7.11s8.71,0,8.71,0h29.02s118.96,0,118.96,0h134.81s11.46,0,11.46,0h8.71s7.11,0,7.11,0h6.05s5.29,0,5.29,0h4.72s4.27,0,4.27,0h3.9s3.6,0,3.6,0h3.35s3.13,0,3.13,0h2.94s2.78,0,2.78,0h2.64s2.51,0,2.51,0h2.39s2.29.01,2.29.01h2.19s2.11.01,2.11.01h2.03s1.96.01,1.96.01h1.89s1.83.01,1.83.01h1.77s1.71.02,1.71.02h1.66s1.62.02,1.62.02h1.57s1.53.02,1.53.02h1.49s1.46.02,1.46.02h1.42s1.39.02,1.39.02h1.36s1.33.02,1.33.02h1.3s1.27.02,1.27.02h1.24s1.22.02,1.22.02h1.2s1.17.03,1.17.03h1.15s1.13.03,1.13.03h1.11s1.09.03,1.09.03l1.07.02h1.05s1.04.03,1.04.03l1.02.02,1,.02.99.02.97.02.96.02.95.02.93.02.92.02.9.02.89.02.88.02.87.02.86.02.85.02.84.02.83.02.82.02.8.02.8.02.79.02.78.02.77.02.76.02.75.02.74.02.73.02.73.02.72.02.71.02.7.02.7.02.69.02.68.02.68.03.67.03.66.03.66.03.65.03.64.03.64.03.63.03.63.03.62.03.62.03.61.03.61.03.6.03.6.03.59.03.58.03.58.03.58.03.57.03.57.03.56.03.56.03.55.03.55.03.54.03.54.03.54.03.53.03.53.03.52.03.52.04.52.04.51.04.51.04.5.04.5.04.5.04.49.04.49.04.49.04.48.04.48.04.48.04.47.04.47.04.47.04.46.04.46.04.46.04.45.04.45.04.45.04.45.04.44.04.44.04.44.04.43.04.43.04.43.04.43.04.42.04.42.05.42.04.42.05.41.05.41.05.41.05.41.05.41.05.4.05.4.05.4.05.4.05.39.05.39.05.39.05.39.05.38.05.38.05.38.05.38.05.38.05.38.05.37.05.37.05.37.05.37.05.36.05.36.05.36.05.36.05.36.06.35.05.35.06.35.06.35.06.35.06.35.06.34.06.34.06.34.06.34.06.34.06.34.06.33.06.33.06.33.06.33.06.33.06.33.06.32.06.32.06.32.06.32.06.32.06.32.06.32.06.31.06.31.06.31.07.31.07.31.07.31.07.3.07.3.07.3.07.3.07.3.07.3.07.3.07.29.07.29.07.29.07.29.07.29.07.29.07.29.07.28.07.28.07.28.07.28.07.28.07.28.07.28.07.28.07.27.07.27.07.27.07.27.08.27.08.27.08.27.08.27.08.27.08.26.08.26.08.26.08.26.08.26.08.26.08.26.08.26.08.25.08.26.08.25.08.25.08.25.08.25.08.25.08.25.08.25.08.25.08.24.09.24.09.24.09.24.09.24.09.24.09.24.09.24.09.24.09.24.09.23.09.23.09.23.09.23.09.23.09.23.09.23.09.23.09.23.09.23.09.23.09.22.09.22.09.22.09.22.09.22.1.22.1.22.1.22.09.22.1.22.1.22.1.21.1.21.1.21.1.21.1.21.1.21.1.21.1.21.1.21.1.21.1.21.1.21.1.2.1.2.1.2.1.2.1.2.1.2.11.2.1.2.11.2.11.2.11.2.11.2.11.2.11.19.11.19.11.19.11.19.11.19.11.19.11.19.11.19.11.19.11.19.11.19.11.19.11.18.11.18.12.18.11.18.12.18.12.18.12.18.12.18.12.18.12.18.12.18.12.18.12.18.12.17.12.18.12.17.12.17.12.17.12.17.12.17.12.17.12.17.12.17.12.17.12.17.12.17.13.17.13.17.13.16.13.16.13.16.13.16.13.16.13.16.13.16.13.16.13.16.13.16.13.16.13.16.13.16.13.16.14.16.13.16.14.16.14.15.14.15.14.15.14.15.14.15.14.15.14.15.14.15.14.15.14.15.14.15.14.15.14.15.14.15.14.15.15.15.14.14.15.14.15.14.15.14.15.14.15.14.15.14.15.14.15.14.15.14.15.14.15.14.15.14.15.14.15.14.15.14.16.13.15.13.16.13.16.13.16.13.16.13.16.13.16.13.16.13.16.13.16.13.16.13.16.13.16.13.16.13.16.13.17.13.17.12.17.12.17.12.17.12.17.12.17.12.17.12.17.12.17.12.17.12.17.12.17.12.17.12.17.12.17.12.18.12.18.12.18.12.18.12.18.11.18.11.18.11.18.11.18.11.18.11.18.11.19.11.18.11.19.11.19.11.19.11.19.11.19.11.19.11.19.11.19.11.19.11.19.11.19.11.2.1.2.1.2.1.2.1.2.1.2.1.2.1.2.1.2.1.2.1.2.1.21.1.21.1.21.1.21.1.21.1.21.1.21.1.21.1.21.09.21.1.21.09.22.09.22.09.22.09.22.09.22.09.22.09.22.09.22.09.22.09.22.09.22.09.23.09.23.09.23.09.23.09.23.09.23.09.23.09.23.09.24.09.24.08.24.08.24.08.24.08.24.08.24.08.24.08.25.08.24.08.25.08.25.08.25.08.25.08.25.08.25.08.25.08.26.08.26.08.26.08.26.08.26.08.26.07.26.07.26.07.27.07.27.07.27.07.27.07.27.07.27.07.27.07.28.07.28.07.28.07.28.07.28.07.28.07.29.07.29.07.29.07.29.07.29.07.29.07.3.07.3.06.3.06.3.06.3.06.3.06.31.06.31.06.31.06.31.06.31.06.31.06.32.06.32.06.32.06.32.06.33.06.33.06.33.06.33.06.33.06.33.06.34.05.34.05.34.05.34.05.35.05.35.05.35.05.35.05.35.05.36.05.36.05.36.05.37.05.37.05.37.05.37.05.38.05.38.05.38.05.38.05.39.05.39.05.39.05.39.05.4.04.4.05.4.04.41.04.41.04.41.04.42.04.42.04.42.04.43.04.43.04.43.04.44.04.44.04.45.04.45.04.45.04.46.04.46.04.47.04.47.04.48.04.48.04.48.04.49.04.49.03.5.03.5.03.51.03.51.03.52.03.52.03.53.03.53.03.54.03.55.03.55.03.56.03.56.03.57.03.58.03.58.03.59.03.6.03.6.03.61.03.62.03.63.03.64.03.64.03.65.02.66.02.67.02.68.02.69.02.7.02.71.02.72.02.73.02.74.02.75.02.76.02.78.02.79.02.8.02.82.02.83.02.85.02.86.02.88.02.9.02.92.02.93.02.95.02.97.02.99v1.02s.03,1.04.03,1.04v1.06s.03,1.09.03,1.09v1.12s.02,1.15.02,1.15v1.18s.02,1.21.02,1.21v1.25s.02,1.29.02,1.29v1.33s.02,1.37.02,1.37v1.42s.02,1.47.02,1.47v1.52s.02,1.58.02,1.58v1.65s.02,1.71.02,1.71v1.79s.01,1.88.01,1.88v1.98s.01,2.09.01,2.09v2.21s.01,2.35.01,2.35v2.51s0,2.7,0,2.7v2.93s0,3.2,0,3.2v3.54s0,3.97,0,3.97v4.54s0,5.33,0,5.33v6.54s0,8.6,0,8.6v13.17s0,87.77,0,87.77v.81Z" />
	</g>
	<g id="Wordmark">
		<path d="M173.2,242.16h55.79c25.89,0,37.83,10.89,27.46,37.9-10.37,27.01-30.7,38.01-56.38,38.01h-19.45l-15.56,40.98h-36.56l44.7-116.89ZM208.01,287.84c5.11,0,9.58-2.67,11.54-7.78s-.5-7.67-5.39-7.67h-16l-5.93,15.45h15.78Z"/>
		<path d="M309.1,325.4h-35.9l-6.99,10.11h-37.67l68.95-93.35h51.12l-2.72,93.35h-37.67l.88-10.11ZM311.27,298.62l1.8-22.34h-6.11l-15.35,22.34h19.67Z"/>
		<path d="M358.89,288.84c11.65-30.34,40.23-49.79,72.46-49.79,24.34,0,45.18,10.56,34.11,44.9h-34.67c1.83-9.11-2.4-13.45-11.51-13.45s-19.61,6.78-24.04,18.34c-4.44,11.56.63,18.34,9.96,18.34s16.71-4.45,21.96-13.78h34.67c-15.38,34.56-44.15,45.23-68.71,45.23-32.23,0-45.84-19.56-34.23-49.79Z"/>
		<path d="M487.1,242.16h87.8l-11.13,29.01h-51.23l-2.39,6.22h49.23l-8.83,23h-49.23l-2.35,6.11h51.23l-11.13,29.01h-87.8l35.83-93.35Z"/>
		<path d="M629.11,359.05l-17.58-45.21h-18.78l-8.32,21.67h-36.56l35.83-93.35h56.46c26.45,0,37.8,10.67,27.65,37.12-4.65,12.11-13.09,20.78-22.22,26.34l19.31,53.43h-35.79ZM603.12,286.84h17.12c5.56,0,9.11-2.89,10.77-7.22s.33-7.22-5.23-7.22h-17.12l-5.55,14.45Z"/>
	</g>
</svg>